G04*
G04 #@! TF.GenerationSoftware,Altium Limited,Altium Designer,20.2.6 (244)*
G04*
G04 Layer_Color=65535*
%FSLAX25Y25*%
%MOIN*%
G70*
G04*
G04 #@! TF.SameCoordinates,57C3D2B1-0C05-4810-AB6C-AC3BEF56B978*
G04*
G04*
G04 #@! TF.FilePolarity,Positive*
G04*
G01*
G75*
%ADD10C,0.00800*%
%ADD11C,0.00500*%
%ADD12C,0.00600*%
D10*
X697760Y867326D02*
G03*
X697760Y867326I-4000J0D01*
G01*
X719013Y853688D02*
G03*
X719013Y853688I-300J0D01*
G01*
X737760Y877326D02*
G03*
X737760Y877326I-4000J0D01*
G01*
X697760D02*
G03*
X697760Y877326I-4000J0D01*
G01*
Y857326D02*
G03*
X697760Y857326I-4000J0D01*
G01*
X737760Y867326D02*
G03*
X737760Y867326I-4000J0D01*
G01*
Y857326D02*
G03*
X737760Y857326I-4000J0D01*
G01*
D11*
X719697Y846601D02*
Y848964D01*
X712020Y846601D02*
X719697D01*
X712020D02*
Y848964D01*
X719697D01*
X723260Y872926D02*
Y889726D01*
X710260D02*
X723260D01*
X710260Y873826D02*
Y889726D01*
Y873826D02*
X711160Y872926D01*
X723260D01*
X697475Y872964D02*
Y870965D01*
X698474Y869965D01*
X699474Y870965D01*
Y872964D01*
X700973Y869965D02*
X701973D01*
X702473Y870465D01*
Y871465D01*
X701973Y871965D01*
X700973D01*
X700474Y871465D01*
Y870465D01*
X700973Y869965D01*
X708760Y846409D02*
Y848409D01*
X708260Y848909D01*
X707261D01*
X706761Y848409D01*
Y846409D01*
X707261Y845910D01*
X708260D01*
X707760Y846909D02*
X708760Y845910D01*
X708260D02*
X708760Y846409D01*
X709760Y845910D02*
X710759D01*
X710259D01*
Y848909D01*
X709760Y848409D01*
X724260Y889325D02*
Y886826D01*
X724759Y886326D01*
X725759D01*
X726259Y886826D01*
Y889325D01*
X727258Y886326D02*
X728258D01*
X727758D01*
Y889325D01*
X727258Y888825D01*
X737772Y845418D02*
X734773D01*
Y846918D01*
X735273Y847418D01*
X736272D01*
X736772Y846918D01*
Y845418D01*
Y846418D02*
X737772Y847418D01*
Y850416D02*
Y848417D01*
X735773Y850416D01*
X735273D01*
X734773Y849917D01*
Y848917D01*
X735273Y848417D01*
X720825Y853313D02*
Y856312D01*
X722824Y853313D01*
Y856312D01*
X723824D02*
X725823D01*
X724823D01*
Y853313D01*
X726823D02*
X727822D01*
X727322D01*
Y856312D01*
X726823Y855813D01*
X706056Y876106D02*
X705557Y876606D01*
X704557D01*
X704057Y876106D01*
Y874107D01*
X704557Y873607D01*
X705557D01*
X706056Y874107D01*
X707056Y873607D02*
X708056D01*
X707556D01*
Y876606D01*
X707056Y876106D01*
X709265Y855341D02*
Y858340D01*
X710764D01*
X711264Y857840D01*
Y856840D01*
X710764Y856340D01*
X709265D01*
X710264D02*
X711264Y855341D01*
X712264Y857840D02*
X712763Y858340D01*
X713763D01*
X714263Y857840D01*
Y857340D01*
X713763Y856840D01*
X713263D01*
X713763D01*
X714263Y856340D01*
Y855841D01*
X713763Y855341D01*
X712763D01*
X712264Y855841D01*
X715709Y855340D02*
Y858339D01*
X717208D01*
X717708Y857839D01*
Y856839D01*
X717208Y856339D01*
X715709D01*
X716708D02*
X717708Y855340D01*
X718708D02*
X719707D01*
X719208D01*
Y858339D01*
X718708Y857839D01*
X693139Y845436D02*
X690140D01*
Y846935D01*
X690640Y847435D01*
X691640D01*
X692140Y846935D01*
Y845436D01*
Y846435D02*
X693139Y847435D01*
Y849934D02*
X690140D01*
X691640Y848435D01*
Y850434D01*
X702948Y853480D02*
Y856479D01*
X704448D01*
X704947Y855979D01*
Y854980D01*
X704448Y854480D01*
X702948D01*
X703948D02*
X704947Y853480D01*
X707946Y856479D02*
X705947D01*
Y854980D01*
X706947Y855480D01*
X707446D01*
X707946Y854980D01*
Y853980D01*
X707446Y853480D01*
X706447D01*
X705947Y853980D01*
X727852Y883970D02*
Y881971D01*
X728852Y880971D01*
X729852Y881971D01*
Y883970D01*
X730852Y882471D02*
X732851D01*
X696835Y883591D02*
Y881591D01*
X697835Y880592D01*
X698834Y881591D01*
Y883591D01*
X699834Y882091D02*
X701833D01*
X700834Y883091D02*
Y881091D01*
X696463Y861295D02*
Y863294D01*
X697963D01*
X698462Y862794D01*
Y861295D01*
X699462D02*
Y864294D01*
X700962D01*
X701462Y863794D01*
Y862794D01*
X700962Y862294D01*
X699462D01*
X700462D02*
X701462Y861295D01*
X727511Y870826D02*
X728510D01*
X728011D01*
Y872826D01*
X727511D01*
X730010Y872326D02*
X732009D01*
X731010Y873325D02*
Y871326D01*
X728511Y860826D02*
X729510D01*
X729011D01*
Y862826D01*
X728511D01*
X731010Y862326D02*
X733009D01*
D12*
X733760Y844409D02*
Y850409D01*
X721760Y844409D02*
X733760D01*
X721760D02*
Y850409D01*
X733760D01*
X720260Y857326D02*
Y869326D01*
Y857326D02*
X726260D01*
Y869326D01*
X720260D02*
X726260D01*
X702760Y877326D02*
Y889326D01*
Y877326D02*
X708760D01*
Y889326D01*
X702760D02*
X708760D01*
X708160Y859326D02*
X714160D01*
X708160D02*
Y871326D01*
X714160D01*
Y859326D02*
Y871326D01*
X714259Y859326D02*
X720259D01*
X714259D02*
Y871326D01*
X720259D01*
Y859326D02*
Y871326D01*
X706006Y844102D02*
Y850102D01*
X694006Y844102D02*
X706006D01*
X694006D02*
Y850102D01*
X706006D01*
X702228Y869362D02*
X708228D01*
Y857362D02*
Y869362D01*
X702228Y857362D02*
X708228D01*
X702228D02*
Y869362D01*
M02*
