G04*
G04 #@! TF.GenerationSoftware,Altium Limited,Altium Designer,20.2.6 (244)*
G04*
G04 Layer_Color=8388736*
%FSLAX25Y25*%
%MOIN*%
G70*
G04*
G04 #@! TF.SameCoordinates,57C3D2B1-0C05-4810-AB6C-AC3BEF56B978*
G04*
G04*
G04 #@! TF.FilePolarity,Negative*
G04*
G01*
G75*
%ADD20R,0.02762X0.02762*%
G04:AMPARAMS|DCode=21|XSize=27.62mil|YSize=19.75mil|CornerRadius=5.94mil|HoleSize=0mil|Usage=FLASHONLY|Rotation=270.000|XOffset=0mil|YOffset=0mil|HoleType=Round|Shape=RoundedRectangle|*
%AMROUNDEDRECTD21*
21,1,0.02762,0.00787,0,0,270.0*
21,1,0.01575,0.01975,0,0,270.0*
1,1,0.01187,-0.00394,-0.00787*
1,1,0.01187,-0.00394,0.00787*
1,1,0.01187,0.00394,0.00787*
1,1,0.01187,0.00394,-0.00787*
%
%ADD21ROUNDEDRECTD21*%
G04:AMPARAMS|DCode=22|XSize=27.62mil|YSize=27.62mil|CornerRadius=7.91mil|HoleSize=0mil|Usage=FLASHONLY|Rotation=270.000|XOffset=0mil|YOffset=0mil|HoleType=Round|Shape=RoundedRectangle|*
%AMROUNDEDRECTD22*
21,1,0.02762,0.01181,0,0,270.0*
21,1,0.01181,0.02762,0,0,270.0*
1,1,0.01581,-0.00591,-0.00591*
1,1,0.01581,-0.00591,0.00591*
1,1,0.01581,0.00591,0.00591*
1,1,0.01581,0.00591,-0.00591*
%
%ADD22ROUNDEDRECTD22*%
%ADD23R,0.02841X0.05203*%
%ADD24O,0.02841X0.05203*%
%ADD25R,0.04337X0.03943*%
%ADD26R,0.03943X0.04337*%
%ADD27C,0.06900*%
D20*
X718713Y851326D02*
D03*
D21*
X715760D02*
D03*
Y844239D02*
D03*
D22*
X712807Y851326D02*
D03*
X718713Y844239D02*
D03*
X712807D02*
D03*
D23*
X713020Y876168D02*
D03*
D24*
X716760D02*
D03*
X720500D02*
D03*
X713020Y886483D02*
D03*
X720500D02*
D03*
D25*
X724807Y847409D02*
D03*
X730713D02*
D03*
X697053Y847102D02*
D03*
X702959D02*
D03*
D26*
X723260Y860373D02*
D03*
Y866278D02*
D03*
X705760Y886279D02*
D03*
Y880373D02*
D03*
X711160Y868279D02*
D03*
Y862373D02*
D03*
X717259Y868279D02*
D03*
Y862373D02*
D03*
X705228Y860409D02*
D03*
Y866315D02*
D03*
D27*
X693760Y867326D02*
D03*
X733760Y877326D02*
D03*
X693760D02*
D03*
Y857326D02*
D03*
X733760Y867326D02*
D03*
Y857326D02*
D03*
M02*
