G04*
G04 #@! TF.GenerationSoftware,Altium Limited,Altium Designer,20.2.6 (244)*
G04*
G04 Layer_Color=32768*
%FSLAX25Y25*%
%MOIN*%
G70*
G04*
G04 #@! TF.SameCoordinates,57C3D2B1-0C05-4810-AB6C-AC3BEF56B978*
G04*
G04*
G04 #@! TF.FilePolarity,Positive*
G04*
G01*
G75*
%ADD11C,0.00500*%
%ADD32C,0.00394*%
D11*
X713760Y881326D02*
X716760D01*
Y878326D02*
Y881326D01*
X719760D01*
X716760D02*
Y884326D01*
X722760Y872326D02*
Y889826D01*
X710760D02*
X722760D01*
X710760Y872326D02*
Y889826D01*
Y872326D02*
X722760D01*
D32*
X727760Y845637D02*
Y849181D01*
X725988Y847409D02*
X729532D01*
X721854Y850165D02*
X733666D01*
X721854Y844653D02*
X733666D01*
X721854D02*
Y850165D01*
X733666Y844653D02*
Y850165D01*
X721488Y863326D02*
X725032D01*
X723260Y861554D02*
Y865097D01*
X720504Y857420D02*
Y869231D01*
X726016Y857420D02*
Y869231D01*
X720504Y857420D02*
X726016D01*
X720504Y869231D02*
X726016D01*
X703004Y889231D02*
X708516D01*
X703004Y877420D02*
X708516D01*
Y889231D01*
X703004Y877420D02*
Y889231D01*
X705760Y881554D02*
Y885097D01*
X703988Y883326D02*
X707532D01*
X709388Y865326D02*
X712932D01*
X711160Y863554D02*
Y867097D01*
X713916Y859420D02*
Y871231D01*
X708404Y859420D02*
Y871231D01*
X713916D01*
X708404Y859420D02*
X713916D01*
X715487Y865326D02*
X719030D01*
X717259Y863554D02*
Y867097D01*
X720014Y859420D02*
Y871231D01*
X714503Y859420D02*
Y871231D01*
X720014D01*
X714503Y859420D02*
X720014D01*
X700006Y845330D02*
Y848874D01*
X698235Y847102D02*
X701778D01*
X694101Y849858D02*
X705912D01*
X694101Y844346D02*
X705912D01*
X694101D02*
Y849858D01*
X705912Y844346D02*
Y849858D01*
X703456Y863362D02*
X706999D01*
X705228Y861590D02*
Y865134D01*
X702472Y857457D02*
Y869268D01*
X707983Y857457D02*
Y869268D01*
X702472Y857457D02*
X707983D01*
X702472Y869268D02*
X707983D01*
M02*
