G04*
G04 #@! TF.GenerationSoftware,Altium Limited,Altium Designer,20.2.6 (244)*
G04*
G04 Layer_Physical_Order=2*
G04 Layer_Color=16711680*
%FSLAX25Y25*%
%MOIN*%
G70*
G04*
G04 #@! TF.SameCoordinates,57C3D2B1-0C05-4810-AB6C-AC3BEF56B978*
G04*
G04*
G04 #@! TF.FilePolarity,Positive*
G04*
G01*
G75*
%ADD10C,0.00800*%
%ADD28C,0.00700*%
%ADD29C,0.06500*%
%ADD30C,0.02600*%
G36*
X734624Y890173D02*
X735162Y889950D01*
X735647Y889626D01*
X736060Y889213D01*
X736384Y888728D01*
X736607Y888189D01*
X736721Y887617D01*
Y880976D01*
X736272Y880755D01*
X735903Y881038D01*
X734869Y881466D01*
X734260Y881547D01*
Y877326D01*
Y873105D01*
X734869Y873185D01*
X735903Y873613D01*
X736272Y873897D01*
X736721Y873676D01*
Y870976D01*
X736272Y870755D01*
X735903Y871038D01*
X734869Y871466D01*
X733760Y871612D01*
X732651Y871466D01*
X731617Y871038D01*
X730729Y870357D01*
X730048Y869469D01*
X729619Y868435D01*
X729473Y867326D01*
X729619Y866216D01*
X730048Y865182D01*
X730103Y865110D01*
X723338Y858345D01*
X719103D01*
X718773Y858840D01*
X718078Y859304D01*
X717259Y859467D01*
X716439Y859304D01*
X715744Y858840D01*
X715280Y858145D01*
X715117Y857326D01*
X715280Y856506D01*
X715744Y855812D01*
X716439Y855348D01*
X716613Y855313D01*
X716564Y854813D01*
X707072D01*
X706742Y855307D01*
X706047Y855772D01*
X705228Y855935D01*
X704408Y855772D01*
X703714Y855307D01*
X703249Y854613D01*
X703087Y853793D01*
X703249Y852974D01*
X703714Y852279D01*
X704408Y851815D01*
X705228Y851652D01*
X706047Y851815D01*
X706742Y852279D01*
X707072Y852774D01*
X716870D01*
X719740Y849903D01*
Y849019D01*
X719246Y848689D01*
X718782Y847994D01*
X718619Y847175D01*
X718782Y846356D01*
X719246Y845661D01*
X719941Y845197D01*
X720760Y845034D01*
X721579Y845197D01*
X722274Y845661D01*
X722738Y846356D01*
X722901Y847175D01*
X722738Y847994D01*
X722274Y848689D01*
X721780Y849019D01*
Y850326D01*
X721702Y850716D01*
X721481Y851047D01*
X718013Y854514D01*
X717683Y854735D01*
X717623Y854747D01*
Y855257D01*
X718078Y855348D01*
X718773Y855812D01*
X719103Y856306D01*
X723760D01*
X724150Y856384D01*
X724481Y856605D01*
X731545Y863669D01*
X731617Y863613D01*
X732651Y863185D01*
X733760Y863039D01*
X734869Y863185D01*
X735903Y863613D01*
X736272Y863897D01*
X736721Y863675D01*
Y860976D01*
X736272Y860755D01*
X735903Y861038D01*
X734869Y861466D01*
X733760Y861612D01*
X732651Y861466D01*
X731617Y861038D01*
X730729Y860357D01*
X730048Y859469D01*
X729619Y858435D01*
X729473Y857326D01*
X729619Y856216D01*
X730048Y855182D01*
X730729Y854295D01*
X731617Y853613D01*
X732651Y853185D01*
X733760Y853039D01*
X734869Y853185D01*
X735903Y853613D01*
X736272Y853897D01*
X736721Y853675D01*
Y847034D01*
X736607Y846462D01*
X736384Y845923D01*
X736060Y845438D01*
X735647Y845026D01*
X735162Y844702D01*
X734624Y844479D01*
X734052Y844365D01*
X693468D01*
X692896Y844479D01*
X692357Y844702D01*
X691873Y845026D01*
X691460Y845438D01*
X691136Y845923D01*
X690913Y846462D01*
X690799Y847034D01*
Y853675D01*
X691248Y853897D01*
X691617Y853613D01*
X692651Y853185D01*
X693760Y853039D01*
X694870Y853185D01*
X695903Y853613D01*
X696791Y854295D01*
X697472Y855182D01*
X697901Y856216D01*
X698047Y857326D01*
X697901Y858435D01*
X697472Y859469D01*
X696791Y860357D01*
X695903Y861038D01*
X694870Y861466D01*
X693760Y861612D01*
X692651Y861466D01*
X691617Y861038D01*
X691248Y860755D01*
X690799Y860976D01*
Y863675D01*
X691248Y863897D01*
X691617Y863613D01*
X692651Y863185D01*
X693760Y863039D01*
X694870Y863185D01*
X695903Y863613D01*
X696791Y864295D01*
X697472Y865182D01*
X697901Y866216D01*
X697919Y866357D01*
X701182D01*
X701553Y866431D01*
X701867Y866641D01*
X706117Y870890D01*
X706760Y870762D01*
X707579Y870925D01*
X708274Y871389D01*
X708738Y872084D01*
X708901Y872904D01*
X708738Y873723D01*
X708274Y874417D01*
X707579Y874882D01*
X706760Y875045D01*
X705941Y874882D01*
X705246Y874417D01*
X704782Y873723D01*
X704619Y872904D01*
X704747Y872260D01*
X700781Y868294D01*
X697919D01*
X697901Y868435D01*
X697472Y869469D01*
X696791Y870357D01*
X695903Y871038D01*
X694870Y871466D01*
X693760Y871612D01*
X692651Y871466D01*
X691617Y871038D01*
X691248Y870755D01*
X690799Y870976D01*
Y873676D01*
X691248Y873897D01*
X691617Y873613D01*
X692651Y873185D01*
X693760Y873039D01*
X694870Y873185D01*
X695903Y873613D01*
X696791Y874295D01*
X697472Y875182D01*
X697901Y876216D01*
X698047Y877326D01*
X697901Y878435D01*
X697472Y879469D01*
X696791Y880357D01*
X695903Y881038D01*
X694870Y881466D01*
X693760Y881612D01*
X692651Y881466D01*
X691617Y881038D01*
X691248Y880755D01*
X690799Y880976D01*
Y887617D01*
X690913Y888189D01*
X691136Y888728D01*
X691460Y889213D01*
X691873Y889626D01*
X692357Y889950D01*
X692896Y890173D01*
X693468Y890287D01*
X734052D01*
X734624Y890173D01*
D02*
G37*
%LPC*%
G36*
X717260Y882619D02*
Y880873D01*
X719006D01*
X718927Y881270D01*
X718418Y882031D01*
X717657Y882540D01*
X717260Y882619D01*
D02*
G37*
G36*
X716260D02*
X715863Y882540D01*
X715102Y882031D01*
X714594Y881270D01*
X714514Y880873D01*
X716260D01*
Y882619D01*
D02*
G37*
G36*
X701682D02*
Y880873D01*
X703428D01*
X703349Y881270D01*
X702840Y882031D01*
X702080Y882540D01*
X701682Y882619D01*
D02*
G37*
G36*
X700682D02*
X700285Y882540D01*
X699524Y882031D01*
X699016Y881270D01*
X698937Y880873D01*
X700682D01*
Y882619D01*
D02*
G37*
G36*
X719006Y879873D02*
X717260D01*
Y878127D01*
X717657Y878207D01*
X718418Y878715D01*
X718927Y879476D01*
X719006Y879873D01*
D02*
G37*
G36*
X716260D02*
X714514D01*
X714594Y879476D01*
X715102Y878715D01*
X715863Y878207D01*
X716260Y878127D01*
Y879873D01*
D02*
G37*
G36*
X703428D02*
X701682D01*
Y878127D01*
X702080Y878207D01*
X702840Y878715D01*
X703349Y879476D01*
X703428Y879873D01*
D02*
G37*
G36*
X700682D02*
X698937D01*
X699016Y879476D01*
X699524Y878715D01*
X700285Y878207D01*
X700682Y878127D01*
Y879873D01*
D02*
G37*
G36*
X733260Y881547D02*
X732651Y881466D01*
X731617Y881038D01*
X730729Y880357D01*
X730048Y879469D01*
X729619Y878435D01*
X729539Y877826D01*
X733260D01*
Y881547D01*
D02*
G37*
G36*
Y876826D02*
X729539D01*
X729619Y876216D01*
X730048Y875182D01*
X730729Y874295D01*
X731617Y873613D01*
X732651Y873185D01*
X733260Y873105D01*
Y876826D01*
D02*
G37*
%LPD*%
D10*
X723760Y857326D02*
X733760Y867326D01*
X717259Y857326D02*
X723760D01*
X717292Y853793D02*
X720760Y850326D01*
Y847175D02*
Y850326D01*
X705228Y853793D02*
X717292D01*
D28*
X701182Y867326D02*
X706760Y872904D01*
X693760Y867326D02*
X701182D01*
X706760Y872904D02*
X706760D01*
D29*
X693760Y867326D02*
D03*
X733760Y877326D02*
D03*
X693760D02*
D03*
Y857326D02*
D03*
X733760Y867326D02*
D03*
Y857326D02*
D03*
D30*
X701182Y880373D02*
D03*
X706760Y872904D02*
D03*
X716760Y880373D02*
D03*
X717259Y857326D02*
D03*
X720760Y847175D02*
D03*
X705228Y853793D02*
D03*
M02*
